<?xml version="1.0" encoding="UTF-8"?>
<svg xmlns="http://www.w3.org/2000/svg" xmlns:xlink="http://www.w3.org/1999/xlink" width="28pt" height="28pt" viewBox="0 0 28 28" version="1.1">
<g id="surface1">
<path style=" stroke:none;fill-rule:nonzero;fill:rgb(0%,0%,0%);fill-opacity:1;" d="M 28.636719 14.316406 C 28.636719 22.222656 22.222656 28.636719 14.316406 28.636719 C 6.414062 28.636719 0 22.222656 0 14.316406 C 0 6.414062 6.414062 0 14.316406 0 C 22.222656 0 28.636719 6.414062 28.636719 14.316406 Z M 28.636719 14.316406 "/>
<path style=" stroke:none;fill-rule:nonzero;fill:rgb(100%,100%,100%);fill-opacity:1;" d="M 15.660156 22.820312 L 15.660156 15.078125 L 18.234375 15.078125 L 18.617188 12.03125 L 15.660156 12.03125 L 15.660156 10.117188 C 15.660156 9.257812 15.945312 8.6875 17.175781 8.6875 L 18.804688 8.6875 L 18.804688 5.917969 C 18.519531 5.917969 17.5625 5.816406 16.519531 5.816406 C 14.21875 5.816406 12.601562 7.257812 12.601562 9.832031 L 12.601562 12.03125 L 10.019531 12.03125 L 10.019531 15.078125 L 12.601562 15.078125 L 12.601562 22.820312 Z M 15.660156 22.820312 "/>
</g>
</svg>
