<?xml version="1.0" encoding="UTF-8"?>
<svg xmlns="http://www.w3.org/2000/svg" xmlns:xlink="http://www.w3.org/1999/xlink" width="28pt" height="28pt" viewBox="0 0 28 28" version="1.1">
<g id="surface1">
<path style=" stroke:none;fill-rule:nonzero;fill:rgb(0%,0%,0%);fill-opacity:1;" d="M 17.699219 7.519531 C 16.816406 7.480469 16.542969 7.46875 14.316406 7.46875 C 12.09375 7.46875 11.820312 7.480469 10.949219 7.519531 C 8.675781 7.617188 7.617188 8.699219 7.519531 10.949219 C 7.480469 11.820312 7.46875 12.09375 7.46875 14.316406 C 7.46875 16.542969 7.480469 16.816406 7.519531 17.699219 C 7.617188 19.9375 8.675781 21.015625 10.949219 21.117188 C 11.820312 21.152344 12.09375 21.167969 14.316406 21.167969 C 16.554688 21.167969 16.816406 21.152344 17.699219 21.117188 C 19.960938 21.015625 21.015625 19.9375 21.117188 17.699219 C 21.152344 16.816406 21.167969 16.542969 21.167969 14.316406 C 21.167969 12.09375 21.152344 11.820312 21.117188 10.949219 C 21.015625 8.699219 19.960938 7.617188 17.699219 7.519531 Z M 14.316406 18.605469 C 11.945312 18.605469 10.03125 16.691406 10.03125 14.316406 C 10.03125 11.945312 11.945312 10.03125 14.316406 10.03125 C 16.691406 10.03125 18.605469 11.945312 18.605469 14.316406 C 18.605469 16.691406 16.691406 18.605469 14.316406 18.605469 Z M 18.78125 10.863281 C 18.222656 10.863281 17.773438 10.414062 17.773438 9.855469 C 17.773438 9.308594 18.222656 8.863281 18.78125 8.863281 C 19.328125 8.863281 19.773438 9.308594 19.773438 9.855469 C 19.773438 10.414062 19.328125 10.863281 18.78125 10.863281 Z M 17.101562 14.316406 C 17.101562 15.859375 15.859375 17.101562 14.316406 17.101562 C 12.777344 17.101562 11.535156 15.859375 11.535156 14.316406 C 11.535156 12.777344 12.777344 11.535156 14.316406 11.535156 C 15.859375 11.535156 17.101562 12.777344 17.101562 14.316406 Z M 14.316406 0 C 6.414062 0 0 6.414062 0 14.316406 C 0 22.222656 6.414062 28.636719 14.316406 28.636719 C 22.222656 28.636719 28.636719 22.222656 28.636719 14.316406 C 28.636719 6.414062 22.222656 0 14.316406 0 Z M 22.621094 17.761719 C 22.484375 20.792969 20.792969 22.484375 17.761719 22.621094 C 16.867188 22.65625 16.582031 22.671875 14.316406 22.671875 C 12.054688 22.671875 11.769531 22.65625 10.875 22.621094 C 7.84375 22.484375 6.152344 20.792969 6.015625 17.761719 C 5.976562 16.867188 5.964844 16.582031 5.964844 14.316406 C 5.964844 12.054688 5.976562 11.769531 6.015625 10.875 C 6.152344 7.84375 7.84375 6.152344 10.875 6.015625 C 11.769531 5.976562 12.054688 5.964844 14.316406 5.964844 C 16.582031 5.964844 16.867188 5.976562 17.761719 6.015625 C 20.792969 6.152344 22.484375 7.84375 22.621094 10.875 C 22.65625 11.769531 22.671875 12.054688 22.671875 14.316406 C 22.671875 16.582031 22.65625 16.867188 22.621094 17.761719 Z M 22.621094 17.761719 "/>
</g>
</svg>
