<?xml version="1.0" encoding="UTF-8"?>
<svg xmlns="http://www.w3.org/2000/svg" xmlns:xlink="http://www.w3.org/1999/xlink" width="28pt" height="28pt" viewBox="0 0 28 28" version="1.1">
<g id="surface1">
<path style=" stroke:none;fill-rule:nonzero;fill:rgb(0%,0%,0%);fill-opacity:1;" d="M 14 0 C 6.269531 0 0 6.269531 0 14 C 0 21.730469 6.269531 28 14 28 C 21.730469 28 28 21.730469 28 14 C 28 6.269531 21.730469 0 14 0 Z M 11.667969 18.667969 L 9.332031 18.667969 L 9.332031 11.667969 L 11.667969 11.667969 Z M 10.5 10.628906 C 9.792969 10.628906 9.214844 10.046875 9.214844 9.332031 C 9.214844 8.621094 9.789062 8.039062 10.5 8.039062 C 11.210938 8.039062 11.785156 8.621094 11.785156 9.332031 C 11.785156 10.046875 11.207031 10.628906 10.5 10.628906 Z M 19.832031 18.667969 L 17.503906 18.667969 L 17.503906 15.328125 C 17.503906 13.132812 15.167969 13.320312 15.167969 15.328125 L 15.167969 18.667969 L 12.832031 18.667969 L 12.832031 11.667969 L 15.167969 11.667969 L 15.167969 12.941406 C 16.183594 11.054688 19.832031 10.917969 19.832031 14.746094 Z M 19.832031 18.667969 "/>
</g>
</svg>
