<?xml version="1.0" encoding="UTF-8"?>
<svg xmlns="http://www.w3.org/2000/svg" xmlns:xlink="http://www.w3.org/1999/xlink" width="28pt" height="28pt" viewBox="0 0 28 28" version="1.1">
<g id="surface1">
<path style=" stroke:none;fill-rule:nonzero;fill:rgb(0%,0%,0%);fill-opacity:1;" d="M 14.316406 0 C 6.414062 0 0 6.414062 0 14.316406 C 0 22.222656 6.414062 28.636719 14.316406 28.636719 C 22.222656 28.636719 28.636719 22.222656 28.636719 14.316406 C 28.636719 6.414062 22.222656 0 14.316406 0 Z M 21.550781 11.507812 C 21.777344 16.332031 18.183594 21.699219 11.820312 21.699219 C 9.882812 21.699219 8.078125 21.128906 6.5625 20.160156 C 8.378906 20.371094 10.191406 19.875 11.632812 18.742188 C 10.140625 18.71875 8.875 17.722656 8.4375 16.367188 C 8.972656 16.46875 9.496094 16.429688 9.980469 16.308594 C 8.339844 15.972656 7.195312 14.492188 7.234375 12.902344 C 7.695312 13.164062 8.226562 13.3125 8.789062 13.324219 C 7.257812 12.304688 6.824219 10.292969 7.730469 8.75 C 9.410156 10.824219 11.945312 12.191406 14.789062 12.328125 C 14.292969 10.191406 15.910156 8.128906 18.132812 8.128906 C 19.117188 8.128906 20 8.539062 20.632812 9.210938 C 21.414062 9.0625 22.148438 8.773438 22.808594 8.378906 C 22.546875 9.171875 22.011719 9.84375 21.304688 10.265625 C 21.988281 10.191406 22.65625 10.003906 23.265625 9.730469 C 22.808594 10.414062 22.222656 11.023438 21.550781 11.507812 Z M 21.550781 11.507812 "/>
</g>
</svg>
