<?xml version="1.0" encoding="UTF-8"?>
<svg xmlns="http://www.w3.org/2000/svg" xmlns:xlink="http://www.w3.org/1999/xlink" width="94pt" height="28pt" viewBox="0 0 94 28" version="1.1">
<defs>
<linearGradient id="linear0" gradientUnits="userSpaceOnUse" x1="-589.992" y1="1661.375" x2="-589.992" y2="1625.329" gradientTransform="matrix(0.696673,0,0,0.700133,479.974494,-1135.108973)">
<stop offset="0" style="stop-color:rgb(10.196078%,10.196078%,10.196078%);stop-opacity:0.101961;"/>
<stop offset="0.123" style="stop-color:rgb(12.941176%,12.941176%,12.941176%);stop-opacity:0.152941;"/>
<stop offset="0.308" style="stop-color:rgb(20.784314%,20.784314%,20.784314%);stop-opacity:0.227451;"/>
<stop offset="0.532" style="stop-color:rgb(34.117647%,34.117647%,34.117647%);stop-opacity:0.317647;"/>
<stop offset="0.783" style="stop-color:rgb(52.156863%,52.156863%,52.156863%);stop-opacity:0.419608;"/>
<stop offset="1" style="stop-color:rgb(70.196078%,70.196078%,70.196078%);stop-opacity:0.509804;"/>
</linearGradient>
</defs>
<g id="surface1">
<path style=" stroke:none;fill-rule:nonzero;fill:rgb(100%,100%,100%);fill-opacity:1;" d="M 93.375 24.695312 C 93.375 26.175781 92.183594 27.375 90.707031 27.375 L 3.292969 27.375 C 1.816406 27.375 0.621094 26.175781 0.621094 24.695312 L 0.621094 3.308594 C 0.621094 1.828125 1.820312 0.625 3.292969 0.625 L 90.703125 0.625 C 92.183594 0.625 93.375 1.828125 93.375 3.308594 Z M 93.375 24.695312 "/>
<path style=" stroke:none;fill-rule:nonzero;fill:rgb(65.098039%,65.098039%,65.098039%);fill-opacity:1;" d="M 90.707031 28 L 3.292969 28 C 1.476562 28 0 26.515625 0 24.695312 L 0 3.308594 C 0 1.484375 1.476562 0 3.292969 0 L 90.703125 0 C 92.519531 0 94 1.484375 94 3.308594 L 94 24.695312 C 94 26.515625 92.519531 28 90.707031 28 Z M 90.707031 28 "/>
<path style=" stroke:none;fill-rule:nonzero;fill:rgb(0%,0%,0%);fill-opacity:1;" d="M 93.375 24.695312 C 93.375 26.175781 92.183594 27.375 90.707031 27.375 L 3.292969 27.375 C 1.816406 27.375 0.621094 26.175781 0.621094 24.695312 L 0.621094 3.308594 C 0.621094 1.828125 1.820312 0.625 3.292969 0.625 L 90.703125 0.625 C 92.183594 0.625 93.375 1.828125 93.375 3.308594 Z M 93.375 24.695312 "/>
<path style=" stroke:none;fill-rule:nonzero;fill:rgb(100%,100%,100%);fill-opacity:1;" d="M 20.988281 13.851562 C 20.96875 11.597656 22.828125 10.5 22.914062 10.445312 C 21.859375 8.90625 20.230469 8.695312 19.65625 8.675781 C 18.285156 8.53125 16.957031 9.5 16.257812 9.5 C 15.546875 9.5 14.46875 8.691406 13.3125 8.714844 C 11.820312 8.738281 10.425781 9.605469 9.660156 10.953125 C 8.082031 13.699219 9.261719 17.734375 10.773438 19.957031 C 11.527344 21.042969 12.414062 22.257812 13.570312 22.214844 C 14.703125 22.167969 15.125 21.488281 16.492188 21.488281 C 17.84375 21.488281 18.242188 22.214844 19.421875 22.1875 C 20.636719 22.167969 21.402344 21.09375 22.132812 19.996094 C 23.007812 18.753906 23.359375 17.523438 23.371094 17.460938 C 23.34375 17.453125 21.011719 16.554688 20.988281 13.851562 Z M 18.761719 7.214844 C 19.367188 6.453125 19.785156 5.410156 19.667969 4.355469 C 18.789062 4.394531 17.6875 4.964844 17.050781 5.714844 C 16.488281 6.375 15.988281 7.457031 16.117188 8.472656 C 17.109375 8.546875 18.125 7.96875 18.761719 7.214844 Z M 18.761719 7.214844 "/>
<path style=" stroke:none;fill-rule:nonzero;fill:url(#linear0);" d="M 90.707031 0 L 43.886719 0 L 62.222656 28 L 90.707031 28 C 92.519531 28 94 26.515625 94 24.691406 L 94 3.308594 C 94 1.484375 92.519531 0 90.707031 0 Z M 90.707031 0 "/>
<path style=" stroke:none;fill-rule:nonzero;fill:rgb(100%,100%,100%);fill-opacity:1;" d="M 37.386719 22.058594 L 35.804688 22.058594 L 34.9375 19.320312 L 31.925781 19.320312 L 31.101562 22.058594 L 29.558594 22.058594 L 32.546875 12.742188 L 34.386719 12.742188 Z M 34.675781 18.171875 L 33.894531 15.738281 C 33.808594 15.492188 33.652344 14.90625 33.425781 13.984375 L 33.398438 13.984375 C 33.304688 14.382812 33.160156 14.964844 32.957031 15.738281 L 32.1875 18.171875 Z M 45.050781 18.617188 C 45.050781 19.757812 44.742188 20.664062 44.121094 21.324219 C 43.570312 21.914062 42.882812 22.210938 42.0625 22.210938 C 41.175781 22.210938 40.539062 21.894531 40.152344 21.257812 L 40.152344 24.78125 L 38.667969 24.78125 L 38.667969 17.546875 C 38.667969 16.832031 38.648438 16.09375 38.613281 15.339844 L 39.917969 15.339844 L 40 16.40625 L 40.03125 16.40625 C 40.523438 15.601562 41.277344 15.199219 42.285156 15.199219 C 43.074219 15.199219 43.730469 15.515625 44.257812 16.140625 C 44.785156 16.769531 45.050781 17.59375 45.050781 18.617188 Z M 43.535156 18.671875 C 43.535156 18.015625 43.390625 17.476562 43.09375 17.054688 C 42.773438 16.609375 42.34375 16.390625 41.800781 16.390625 C 41.4375 16.390625 41.101562 16.511719 40.804688 16.757812 C 40.507812 17 40.3125 17.320312 40.222656 17.71875 C 40.175781 17.902344 40.152344 18.050781 40.152344 18.171875 L 40.152344 19.292969 C 40.152344 19.78125 40.300781 20.191406 40.597656 20.53125 C 40.898438 20.867188 41.285156 21.035156 41.761719 21.035156 C 42.320312 21.035156 42.757812 20.816406 43.066406 20.386719 C 43.378906 19.953125 43.535156 19.382812 43.535156 18.671875 Z M 52.738281 18.617188 C 52.738281 19.757812 52.429688 20.664062 51.8125 21.324219 C 51.257812 21.914062 50.570312 22.210938 49.75 22.210938 C 48.863281 22.210938 48.226562 21.894531 47.839844 21.257812 L 47.839844 24.78125 L 46.355469 24.78125 L 46.355469 17.546875 C 46.355469 16.832031 46.335938 16.09375 46.300781 15.339844 L 47.605469 15.339844 L 47.691406 16.40625 L 47.71875 16.40625 C 48.210938 15.601562 48.964844 15.199219 49.972656 15.199219 C 50.761719 15.199219 51.421875 15.515625 51.949219 16.140625 C 52.472656 16.769531 52.738281 17.59375 52.738281 18.617188 Z M 51.222656 18.671875 C 51.222656 18.015625 51.078125 17.476562 50.785156 17.054688 C 50.460938 16.609375 50.03125 16.390625 49.492188 16.390625 C 49.125 16.390625 48.792969 16.511719 48.492188 16.757812 C 48.195312 17 48 17.320312 47.910156 17.71875 C 47.863281 17.902344 47.839844 18.050781 47.839844 18.171875 L 47.839844 19.292969 C 47.839844 19.78125 47.988281 20.191406 48.285156 20.53125 C 48.585938 20.867188 48.972656 21.035156 49.449219 21.035156 C 50.011719 21.035156 50.445312 20.816406 50.757812 20.386719 C 51.066406 19.953125 51.222656 19.382812 51.222656 18.671875 Z M 61.335938 19.445312 C 61.335938 20.238281 61.058594 20.882812 60.511719 21.378906 C 59.90625 21.921875 59.066406 22.195312 57.984375 22.195312 C 56.988281 22.195312 56.1875 22.003906 55.585938 21.617188 L 55.929688 20.371094 C 56.578125 20.757812 57.296875 20.953125 58.074219 20.953125 C 58.632812 20.953125 59.070312 20.824219 59.378906 20.574219 C 59.691406 20.320312 59.847656 19.980469 59.847656 19.558594 C 59.847656 19.179688 59.71875 18.863281 59.464844 18.601562 C 59.207031 18.34375 58.78125 18.105469 58.183594 17.882812 C 56.5625 17.277344 55.75 16.386719 55.75 15.214844 C 55.75 14.453125 56.035156 13.824219 56.609375 13.335938 C 57.179688 12.847656 57.941406 12.601562 58.886719 12.601562 C 59.730469 12.601562 60.429688 12.75 60.988281 13.046875 L 60.617188 14.261719 C 60.089844 13.976562 59.5 13.832031 58.835938 13.832031 C 58.3125 13.832031 57.902344 13.964844 57.605469 14.222656 C 57.359375 14.453125 57.234375 14.730469 57.234375 15.066406 C 57.234375 15.433594 57.375 15.738281 57.660156 15.976562 C 57.90625 16.199219 58.359375 16.4375 59.007812 16.695312 C 59.804688 17.019531 60.394531 17.394531 60.769531 17.828125 C 61.148438 18.261719 61.335938 18.800781 61.335938 19.445312 Z M 66.257812 16.460938 L 64.621094 16.460938 L 64.621094 19.722656 C 64.621094 20.550781 64.910156 20.964844 65.488281 20.964844 C 65.753906 20.964844 65.972656 20.941406 66.148438 20.894531 L 66.1875 22.03125 C 65.894531 22.140625 65.511719 22.195312 65.035156 22.195312 C 64.445312 22.195312 63.988281 22.015625 63.65625 21.65625 C 63.328125 21.296875 63.164062 20.691406 63.164062 19.84375 L 63.164062 16.457031 L 62.1875 16.457031 L 62.1875 15.335938 L 63.164062 15.335938 L 63.164062 14.105469 L 64.621094 13.664062 L 64.621094 15.335938 L 66.257812 15.335938 Z M 73.628906 18.644531 C 73.628906 19.675781 73.335938 20.523438 72.75 21.1875 C 72.136719 21.871094 71.320312 22.210938 70.300781 22.210938 C 69.320312 22.210938 68.539062 21.882812 67.957031 21.230469 C 67.375 20.574219 67.082031 19.75 67.082031 18.753906 C 67.082031 17.714844 67.382812 16.863281 67.984375 16.199219 C 68.585938 15.535156 69.394531 15.203125 70.410156 15.203125 C 71.394531 15.203125 72.179688 15.53125 72.777344 16.183594 C 73.347656 16.820312 73.628906 17.636719 73.628906 18.644531 Z M 72.089844 18.679688 C 72.089844 18.0625 71.957031 17.535156 71.691406 17.09375 C 71.382812 16.558594 70.9375 16.292969 70.359375 16.292969 C 69.761719 16.292969 69.308594 16.558594 68.996094 17.09375 C 68.730469 17.535156 68.597656 18.070312 68.597656 18.707031 C 68.597656 19.320312 68.730469 19.851562 68.996094 20.292969 C 69.316406 20.824219 69.765625 21.09375 70.347656 21.09375 C 70.914062 21.09375 71.359375 20.820312 71.679688 20.277344 C 71.953125 19.824219 72.089844 19.292969 72.089844 18.679688 Z M 78.460938 16.652344 C 78.3125 16.625 78.15625 16.609375 77.992188 16.609375 C 77.46875 16.609375 77.066406 16.808594 76.78125 17.207031 C 76.535156 17.554688 76.410156 18 76.410156 18.53125 L 76.410156 22.058594 L 74.925781 22.058594 L 74.925781 17.457031 C 74.925781 16.683594 74.910156 15.976562 74.882812 15.339844 L 76.175781 15.339844 L 76.230469 16.625 L 76.273438 16.625 C 76.429688 16.183594 76.675781 15.828125 77.015625 15.5625 C 77.34375 15.320312 77.703125 15.199219 78.089844 15.199219 C 78.226562 15.199219 78.347656 15.210938 78.460938 15.226562 Z M 85.101562 18.382812 C 85.101562 18.648438 85.085938 18.875 85.050781 19.058594 L 80.59375 19.058594 C 80.609375 19.722656 80.824219 20.230469 81.238281 20.582031 C 81.617188 20.890625 82.101562 21.050781 82.695312 21.050781 C 83.355469 21.050781 83.957031 20.945312 84.5 20.730469 L 84.734375 21.769531 C 84.101562 22.042969 83.351562 22.183594 82.492188 22.183594 C 81.453125 22.183594 80.640625 21.875 80.050781 21.265625 C 79.457031 20.652344 79.164062 19.828125 79.164062 18.796875 C 79.164062 17.785156 79.4375 16.941406 79.988281 16.269531 C 80.566406 15.550781 81.34375 15.191406 82.324219 15.191406 C 83.289062 15.191406 84.019531 15.550781 84.515625 16.269531 C 84.90625 16.835938 85.101562 17.542969 85.101562 18.382812 Z M 83.6875 17.992188 C 83.699219 17.550781 83.601562 17.167969 83.398438 16.847656 C 83.140625 16.429688 82.746094 16.222656 82.214844 16.222656 C 81.730469 16.222656 81.335938 16.425781 81.035156 16.832031 C 80.785156 17.15625 80.640625 17.542969 80.59375 17.992188 Z M 83.6875 17.992188 "/>
<path style=" stroke:none;fill-rule:nonzero;fill:rgb(100%,100%,100%);fill-opacity:1;" d="M 33.960938 9.40625 L 33.183594 9.40625 L 32.757812 8.0625 L 31.277344 8.0625 L 30.871094 9.40625 L 30.113281 9.40625 L 31.582031 4.828125 L 32.484375 4.828125 Z M 32.628906 7.496094 L 32.242188 6.300781 C 32.203125 6.179688 32.128906 5.894531 32.011719 5.4375 L 32 5.4375 C 31.953125 5.636719 31.882812 5.921875 31.78125 6.300781 L 31.40625 7.496094 Z M 37.628906 6.105469 L 36.386719 9.40625 L 35.675781 9.40625 L 34.472656 6.105469 L 35.253906 6.105469 L 35.816406 7.851562 C 35.910156 8.140625 35.992188 8.421875 36.054688 8.6875 L 36.074219 8.6875 C 36.128906 8.449219 36.207031 8.167969 36.308594 7.851562 L 36.863281 6.105469 Z M 40.277344 9.40625 L 40.222656 9.027344 L 40.203125 9.027344 C 39.980469 9.332031 39.65625 9.480469 39.242188 9.480469 C 38.65625 9.480469 38.234375 9.066406 38.234375 8.507812 C 38.234375 7.695312 38.9375 7.273438 40.15625 7.273438 L 40.15625 7.210938 C 40.15625 6.777344 39.925781 6.558594 39.472656 6.558594 C 39.148438 6.558594 38.863281 6.640625 38.613281 6.804688 L 38.464844 6.320312 C 38.769531 6.132812 39.148438 6.035156 39.597656 6.035156 C 40.453125 6.035156 40.886719 6.492188 40.886719 7.402344 L 40.886719 8.617188 C 40.886719 8.953125 40.902344 9.210938 40.933594 9.40625 Z M 40.175781 7.761719 C 39.363281 7.761719 38.960938 7.957031 38.960938 8.425781 C 38.960938 8.773438 39.167969 8.941406 39.460938 8.941406 C 39.832031 8.941406 40.175781 8.660156 40.175781 8.269531 Z M 42.515625 5.558594 C 42.269531 5.558594 42.082031 5.371094 42.082031 5.117188 C 42.082031 4.867188 42.277344 4.683594 42.527344 4.683594 C 42.777344 4.683594 42.980469 4.867188 42.972656 5.117188 C 42.972656 5.382812 42.785156 5.558594 42.515625 5.558594 Z M 42.894531 9.40625 L 42.164062 9.40625 L 42.164062 6.105469 L 42.894531 6.105469 Z M 44.921875 9.40625 L 44.191406 9.40625 L 44.191406 4.589844 L 44.921875 4.589844 Z M 48.023438 9.40625 L 47.96875 9.027344 L 47.949219 9.027344 C 47.726562 9.332031 47.402344 9.480469 46.988281 9.480469 C 46.402344 9.480469 45.980469 9.066406 45.980469 8.507812 C 45.980469 7.695312 46.683594 7.273438 47.902344 7.273438 L 47.902344 7.210938 C 47.902344 6.777344 47.671875 6.558594 47.21875 6.558594 C 46.894531 6.558594 46.609375 6.640625 46.359375 6.804688 L 46.210938 6.320312 C 46.515625 6.128906 46.894531 6.035156 47.339844 6.035156 C 48.199219 6.035156 48.632812 6.492188 48.632812 7.402344 L 48.632812 8.617188 C 48.632812 8.949219 48.648438 9.210938 48.679688 9.40625 Z M 47.921875 7.761719 C 47.109375 7.761719 46.703125 7.957031 46.703125 8.425781 C 46.703125 8.773438 46.914062 8.941406 47.203125 8.941406 C 47.578125 8.941406 47.921875 8.660156 47.921875 8.269531 Z M 51.589844 9.480469 C 51.125 9.480469 50.78125 9.285156 50.558594 8.894531 L 50.542969 8.894531 L 50.5 9.40625 L 49.878906 9.40625 C 49.898438 9.140625 49.90625 8.839844 49.90625 8.515625 L 49.90625 4.589844 L 50.636719 4.589844 L 50.636719 6.585938 L 50.648438 6.585938 C 50.867188 6.21875 51.21875 6.035156 51.699219 6.035156 C 52.488281 6.035156 53.042969 6.71875 53.042969 7.707031 C 53.042969 8.734375 52.429688 9.480469 51.589844 9.480469 Z M 51.441406 6.613281 C 51.023438 6.613281 50.636719 6.980469 50.636719 7.488281 L 50.636719 8.066406 C 50.636719 8.523438 50.984375 8.894531 51.429688 8.894531 C 51.976562 8.894531 52.300781 8.449219 52.300781 7.734375 C 52.300781 7.070312 51.960938 6.613281 51.441406 6.613281 Z M 54.851562 9.40625 L 54.125 9.40625 L 54.125 4.589844 L 54.851562 4.589844 Z M 58.828125 7.929688 L 56.636719 7.929688 C 56.652344 8.558594 57.0625 8.910156 57.671875 8.910156 C 57.996094 8.910156 58.292969 8.855469 58.554688 8.753906 L 58.667969 9.261719 C 58.359375 9.398438 57.992188 9.46875 57.566406 9.46875 C 56.539062 9.46875 55.933594 8.816406 55.933594 7.804688 C 55.933594 6.789062 56.554688 6.03125 57.484375 6.03125 C 58.324219 6.03125 58.851562 6.65625 58.851562 7.597656 C 58.855469 7.726562 58.847656 7.84375 58.828125 7.929688 Z M 58.160156 7.410156 C 58.160156 6.898438 57.902344 6.539062 57.433594 6.539062 C 57.015625 6.539062 56.683594 6.90625 56.636719 7.410156 Z M 63.253906 9.480469 C 62.292969 9.480469 61.671875 8.761719 61.671875 7.78125 C 61.671875 6.761719 62.304688 6.035156 63.308594 6.035156 C 64.253906 6.035156 64.890625 6.722656 64.890625 7.730469 C 64.890625 8.761719 64.234375 9.480469 63.253906 9.480469 Z M 63.28125 6.574219 C 62.753906 6.574219 62.414062 7.066406 62.414062 7.761719 C 62.414062 8.441406 62.761719 8.9375 63.273438 8.9375 C 63.789062 8.9375 64.132812 8.40625 64.132812 7.746094 C 64.132812 7.074219 63.792969 6.574219 63.28125 6.574219 Z M 68.816406 9.40625 L 68.085938 9.40625 L 68.085938 7.511719 C 68.085938 6.925781 67.863281 6.632812 67.421875 6.632812 C 66.992188 6.632812 66.691406 7.007812 66.691406 7.441406 L 66.691406 9.40625 L 65.964844 9.40625 L 65.964844 7.046875 C 65.964844 6.757812 65.957031 6.441406 65.9375 6.105469 L 66.578125 6.105469 L 66.613281 6.613281 L 66.632812 6.613281 C 66.828125 6.261719 67.226562 6.035156 67.671875 6.035156 C 68.363281 6.035156 68.816406 6.566406 68.816406 7.429688 Z M 73.59375 6.65625 L 72.789062 6.65625 L 72.789062 8.257812 C 72.789062 8.667969 72.929688 8.871094 73.214844 8.871094 C 73.34375 8.871094 73.453125 8.855469 73.539062 8.835938 L 73.558594 9.394531 C 73.417969 9.449219 73.226562 9.476562 72.992188 9.476562 C 72.417969 9.476562 72.074219 9.15625 72.074219 8.320312 L 72.074219 6.65625 L 71.59375 6.65625 L 71.59375 6.105469 L 72.074219 6.105469 L 72.074219 5.5 L 72.789062 5.28125 L 72.789062 6.105469 L 73.59375 6.105469 Z M 77.457031 9.40625 L 76.726562 9.40625 L 76.726562 7.523438 C 76.726562 6.933594 76.503906 6.632812 76.066406 6.632812 C 75.6875 6.632812 75.335938 6.894531 75.335938 7.414062 L 75.335938 9.40625 L 74.605469 9.40625 L 74.605469 4.589844 L 75.335938 4.589844 L 75.335938 6.574219 L 75.351562 6.574219 C 75.578125 6.210938 75.910156 6.035156 76.335938 6.035156 C 77.035156 6.035156 77.457031 6.578125 77.457031 7.441406 Z M 81.191406 7.929688 L 79 7.929688 C 79.011719 8.558594 79.421875 8.910156 80.03125 8.910156 C 80.359375 8.910156 80.65625 8.855469 80.917969 8.753906 L 81.03125 9.261719 C 80.722656 9.398438 80.355469 9.46875 79.929688 9.46875 C 78.902344 9.46875 78.292969 8.816406 78.292969 7.804688 C 78.292969 6.789062 78.917969 6.03125 79.847656 6.03125 C 80.6875 6.03125 81.214844 6.65625 81.214844 7.597656 C 81.214844 7.726562 81.210938 7.84375 81.191406 7.929688 Z M 80.519531 7.410156 C 80.519531 6.898438 80.261719 6.539062 79.796875 6.539062 C 79.375 6.539062 79.046875 6.90625 79 7.410156 Z M 80.519531 7.410156 "/>
</g>
</svg>
