<?xml version="1.0" encoding="UTF-8"?>
<svg xmlns="http://www.w3.org/2000/svg" xmlns:xlink="http://www.w3.org/1999/xlink" width="94pt" height="28pt" viewBox="0 0 94 28" version="1.1">
<defs>
<linearGradient id="linear0" gradientUnits="userSpaceOnUse" x1="21.8" y1="33.29" x2="5.017" y2="16.508" gradientTransform="matrix(0.696296,0,0,-0.699755,0,29.394612)">
<stop offset="0" style="stop-color:rgb(0%,62.745098%,100%);stop-opacity:1;"/>
<stop offset="0.007" style="stop-color:rgb(0%,63.137255%,100%);stop-opacity:1;"/>
<stop offset="0.26" style="stop-color:rgb(0%,74.509804%,100%);stop-opacity:1;"/>
<stop offset="0.512" style="stop-color:rgb(0%,82.352941%,100%);stop-opacity:1;"/>
<stop offset="0.76" style="stop-color:rgb(0%,87.45098%,100%);stop-opacity:1;"/>
<stop offset="1" style="stop-color:rgb(0%,89.019608%,100%);stop-opacity:1;"/>
</linearGradient>
<linearGradient id="linear1" gradientUnits="userSpaceOnUse" x1="33.834" y1="21.999" x2="9.637" y2="21.999" gradientTransform="matrix(0.696296,0,0,-0.699755,0,29.394612)">
<stop offset="0" style="stop-color:rgb(100%,87.843137%,0%);stop-opacity:1;"/>
<stop offset="0.409" style="stop-color:rgb(100%,74.117647%,0%);stop-opacity:1;"/>
<stop offset="0.775" style="stop-color:rgb(100%,64.705882%,0%);stop-opacity:1;"/>
<stop offset="1" style="stop-color:rgb(100%,61.176471%,0%);stop-opacity:1;"/>
</linearGradient>
<linearGradient id="linear2" gradientUnits="userSpaceOnUse" x1="24.827" y1="19.704" x2="2.069" y2="-3.054" gradientTransform="matrix(0.696296,0,0,-0.699755,0,29.394612)">
<stop offset="0" style="stop-color:rgb(100%,22.745098%,26.666667%);stop-opacity:1;"/>
<stop offset="1" style="stop-color:rgb(76.470588%,6.666667%,38.431373%);stop-opacity:1;"/>
</linearGradient>
<linearGradient id="linear3" gradientUnits="userSpaceOnUse" x1="7.297" y1="41.824" x2="17.46" y2="31.661" gradientTransform="matrix(0.696296,0,0,-0.699755,0,29.394612)">
<stop offset="0" style="stop-color:rgb(19.607843%,62.745098%,44.313725%);stop-opacity:1;"/>
<stop offset="0.069" style="stop-color:rgb(17.647059%,65.490196%,44.313725%);stop-opacity:1;"/>
<stop offset="0.476" style="stop-color:rgb(8.235294%,81.176471%,45.490196%);stop-opacity:1;"/>
<stop offset="0.801" style="stop-color:rgb(2.352941%,90.588235%,45.882353%);stop-opacity:1;"/>
<stop offset="1" style="stop-color:rgb(0%,94.117647%,46.27451%);stop-opacity:1;"/>
</linearGradient>
<filter id="alpha" filterUnits="objectBoundingBox" x="0%" y="0%" width="100%" height="100%">
  <feColorMatrix type="matrix" in="SourceGraphic" values="0 0 0 0 1 0 0 0 0 1 0 0 0 0 1 0 0 0 1 0"/>
</filter>
<mask id="mask0">
  <g filter="url(#alpha)">
<rect x="0" y="0" width="94" height="28" style="fill:rgb(0%,0%,0%);fill-opacity:0.2;stroke:none;"/>
  </g>
</mask>
<clipPath id="clip1">
  <rect x="0" y="0" width="94" height="29"/>
</clipPath>
<g id="surface5" clip-path="url(#clip1)">
<path style=" stroke:none;fill-rule:nonzero;fill:rgb(0%,0%,0%);fill-opacity:1;" d="M 18.800781 16.867188 L 8.703125 22.605469 C 8.148438 22.957031 7.660156 22.886719 7.3125 22.605469 L 7.242188 22.675781 L 7.3125 22.746094 C 7.660156 23.027344 8.148438 23.097656 8.703125 22.746094 Z M 18.800781 16.867188 "/>
</g>
<mask id="mask1">
  <g filter="url(#alpha)">
<rect x="0" y="0" width="94" height="28" style="fill:rgb(0%,0%,0%);fill-opacity:0.121569;stroke:none;"/>
  </g>
</mask>
<clipPath id="clip2">
  <rect x="0" y="0" width="94" height="29"/>
</clipPath>
<g id="surface8" clip-path="url(#clip2)">
<path style=" stroke:none;fill-rule:nonzero;fill:rgb(0%,0%,0%);fill-opacity:1;" d="M 7.242188 22.605469 C 7.03125 22.398438 6.964844 22.046875 6.964844 21.628906 L 6.964844 21.699219 C 6.964844 22.117188 7.101562 22.46875 7.3125 22.675781 L 7.3125 22.605469 Z M 22.28125 14.910156 L 18.800781 16.867188 L 18.871094 16.9375 L 22.28125 14.980469 C 22.769531 14.699219 22.976562 14.351562 22.976562 14 C 22.976562 14.351562 22.699219 14.628906 22.28125 14.910156 Z M 22.28125 14.910156 "/>
</g>
<mask id="mask2">
  <g filter="url(#alpha)">
<rect x="0" y="0" width="94" height="28" style="fill:rgb(0%,0%,0%);fill-opacity:0.25098;stroke:none;"/>
  </g>
</mask>
<clipPath id="clip3">
  <rect x="0" y="0" width="94" height="29"/>
</clipPath>
<g id="surface11" clip-path="url(#clip3)">
<path style=" stroke:none;fill-rule:nonzero;fill:rgb(100%,100%,100%);fill-opacity:1;" d="M 8.703125 5.324219 L 22.28125 13.089844 C 22.699219 13.371094 22.976562 13.648438 22.976562 14 C 22.976562 13.648438 22.769531 13.300781 22.28125 13.019531 L 8.703125 5.253906 C 7.730469 4.691406 6.964844 5.113281 6.964844 6.234375 L 6.964844 6.300781 C 6.964844 5.253906 7.730469 4.761719 8.703125 5.324219 Z M 8.703125 5.324219 "/>
</g>
</defs>
<g id="surface1">
<path style=" stroke:none;fill-rule:nonzero;fill:rgb(0%,0%,0%);fill-opacity:1;" d="M 90.519531 27.996094 L 3.480469 27.996094 C 1.53125 27.996094 0 26.457031 0 24.496094 L 0 3.503906 C 0 1.542969 1.53125 0.00390625 3.480469 0.00390625 L 90.519531 0.00390625 C 92.46875 0.00390625 94 1.542969 94 3.503906 L 94 24.496094 C 94 26.457031 92.46875 27.996094 90.519531 27.996094 Z M 90.519531 27.996094 "/>
<path style=" stroke:none;fill-rule:nonzero;fill:rgb(65.098039%,65.098039%,65.098039%);fill-opacity:1;" d="M 90.519531 0.566406 C 92.121094 0.566406 93.441406 1.894531 93.441406 3.503906 L 93.441406 24.496094 C 93.441406 26.105469 92.121094 27.433594 90.519531 27.433594 L 3.480469 27.433594 C 1.878906 27.433594 0.558594 26.105469 0.558594 24.496094 L 0.558594 3.503906 C 0.558594 1.894531 1.878906 0.566406 3.480469 0.566406 Z M 90.519531 0.00390625 L 3.480469 0.00390625 C 1.53125 0.00390625 0 1.613281 0 3.503906 L 0 24.496094 C 0 26.457031 1.53125 27.996094 3.480469 27.996094 L 90.519531 27.996094 C 92.46875 27.996094 94 26.457031 94 24.496094 L 94 3.503906 C 94 1.613281 92.46875 0.00390625 90.519531 0.00390625 Z M 90.519531 0.00390625 "/>
<path style="fill-rule:nonzero;fill:rgb(100%,100%,100%);fill-opacity:1;stroke-width:0.2;stroke-linecap:butt;stroke-linejoin:miter;stroke:rgb(100%,100%,100%);stroke-opacity:1;stroke-miterlimit:10;" d="M 47.399227 10.197463 C 47.399227 11.001316 47.197266 11.699105 46.697972 12.201513 C 46.097698 12.79882 45.402053 13.100265 44.498836 13.100265 C 43.60123 13.100265 42.899975 12.79882 42.299701 12.201513 C 41.699427 11.598623 41.402094 10.900834 41.402094 10.002082 C 41.402094 9.097748 41.699427 8.399959 42.299701 7.802652 C 42.899975 7.199763 43.60123 6.898318 44.498836 6.898318 C 44.902759 6.898318 45.301072 6.998799 45.699385 7.199763 C 46.097698 7.400726 46.40064 7.601689 46.602601 7.897551 L 46.097698 8.399959 C 45.699385 7.897551 45.200091 7.70217 44.498836 7.70217 C 43.898562 7.70217 43.298288 7.897551 42.899975 8.399959 C 42.400682 8.801886 42.19872 9.399193 42.19872 10.102564 C 42.19872 10.800353 42.400682 11.39766 42.899975 11.799586 C 43.399269 12.201513 43.898562 12.497375 44.498836 12.497375 C 45.200091 12.497375 45.699385 12.301994 46.198679 11.799586 C 46.501621 11.498141 46.697972 11.101797 46.697972 10.59939 L 44.498836 10.59939 L 44.498836 9.801119 L 47.399227 9.801119 Z M 51.99946 7.70217 L 49.301031 7.70217 L 49.301031 9.600156 L 51.797498 9.600156 L 51.797498 10.297945 L 49.301031 10.297945 L 49.301031 12.201513 L 51.99946 12.201513 L 51.99946 12.999783 L 48.498795 12.999783 L 48.498795 6.998799 L 51.99946 6.998799 Z M 55.298163 12.999783 L 54.501538 12.999783 L 54.501538 7.70217 L 52.801695 7.70217 L 52.801695 6.998799 L 56.998005 6.998799 L 56.998005 7.70217 L 55.298163 7.70217 Z M 59.898396 12.999783 L 59.898396 6.998799 L 60.700632 6.998799 L 60.700632 12.999783 Z M 64.100316 12.999783 L 63.29808 12.999783 L 63.29808 7.70217 L 61.598238 7.70217 L 61.598238 6.998799 L 65.699177 6.998799 L 65.699177 7.70217 L 63.999335 7.70217 L 63.999335 12.999783 Z M 73.598113 12.201513 C 72.997839 12.79882 72.302194 13.100265 71.398978 13.100265 C 70.501371 13.100265 69.800116 12.79882 69.199842 12.201513 C 68.599568 11.598623 68.302236 10.900834 68.302236 10.002082 C 68.302236 9.097748 68.599568 8.399959 69.199842 7.802652 C 69.800116 7.199763 70.501371 6.898318 71.398978 6.898318 C 72.302194 6.898318 72.997839 7.199763 73.598113 7.802652 C 74.198388 8.399959 74.50133 9.097748 74.50133 10.002082 C 74.50133 10.900834 74.198388 11.598623 73.598113 12.201513 Z M 69.800116 11.699105 C 70.198429 12.101031 70.798703 12.402476 71.398978 12.402476 C 71.999252 12.402476 72.599526 12.201513 72.997839 11.699105 C 73.401762 11.302761 73.699094 10.699871 73.699094 10.002082 C 73.699094 9.298711 73.502743 8.701404 72.997839 8.299478 C 72.599526 7.897551 71.999252 7.601689 71.398978 7.601689 C 70.798703 7.601689 70.198429 7.802652 69.800116 8.299478 C 69.401804 8.701404 69.098861 9.298711 69.098861 10.002082 C 69.098861 10.699871 69.300823 11.302761 69.800116 11.699105 Z M 75.600898 12.999783 L 75.600898 6.998799 L 76.498504 6.998799 L 79.398895 11.699105 L 79.398895 6.998799 L 80.20113 6.998799 L 80.20113 12.999783 L 79.398895 12.999783 L 76.302153 8.098515 L 76.302153 12.999783 Z M 75.600898 12.999783 " transform="matrix(0.696296,0,0,0.699755,0,0.00489829)"/>
<path style=" stroke:none;fill-rule:nonzero;fill:rgb(100%,100%,100%);fill-opacity:1;" d="M 47.417969 15.257812 C 45.746094 15.257812 44.421875 16.519531 44.421875 18.269531 C 44.421875 19.949219 45.746094 21.277344 47.417969 21.277344 C 49.089844 21.277344 50.410156 20.019531 50.410156 18.269531 C 50.410156 16.449219 49.089844 15.257812 47.417969 15.257812 Z M 47.417969 20.019531 C 46.511719 20.019531 45.746094 19.25 45.746094 18.199219 C 45.746094 17.148438 46.511719 16.378906 47.417969 16.378906 C 48.324219 16.378906 49.089844 17.078125 49.089844 18.199219 C 49.089844 19.25 48.324219 20.019531 47.417969 20.019531 Z M 40.941406 15.257812 C 39.269531 15.257812 37.949219 16.519531 37.949219 18.269531 C 37.949219 19.949219 39.269531 21.277344 40.941406 21.277344 C 42.613281 21.277344 43.9375 20.019531 43.9375 18.269531 C 43.9375 16.449219 42.613281 15.257812 40.941406 15.257812 Z M 40.941406 20.019531 C 40.035156 20.019531 39.269531 19.25 39.269531 18.199219 C 39.269531 17.148438 40.035156 16.378906 40.941406 16.378906 C 41.847656 16.378906 42.613281 17.078125 42.613281 18.199219 C 42.613281 19.25 41.847656 20.019531 40.941406 20.019531 Z M 33.214844 16.167969 L 33.214844 17.429688 L 36.207031 17.429688 C 36.136719 18.128906 35.859375 18.6875 35.511719 19.039062 C 35.09375 19.457031 34.398438 19.949219 33.214844 19.949219 C 31.332031 19.949219 29.941406 18.476562 29.941406 16.589844 C 29.941406 14.699219 31.402344 13.230469 33.214844 13.230469 C 34.1875 13.230469 34.953125 13.648438 35.511719 14.140625 L 36.417969 13.230469 C 35.648438 12.53125 34.675781 11.972656 33.28125 11.972656 C 30.777344 11.972656 28.617188 14.070312 28.617188 16.589844 C 28.617188 19.109375 30.777344 21.207031 33.28125 21.207031 C 34.675781 21.207031 35.648438 20.789062 36.484375 19.878906 C 37.320312 19.039062 37.601562 17.847656 37.601562 16.9375 C 37.601562 16.660156 37.601562 16.378906 37.53125 16.167969 Z M 64.824219 17.148438 C 64.546875 16.449219 63.851562 15.257812 62.320312 15.257812 C 60.785156 15.257812 59.535156 16.449219 59.535156 18.269531 C 59.535156 19.949219 60.785156 21.277344 62.457031 21.277344 C 63.78125 21.277344 64.617188 20.4375 64.894531 19.949219 L 63.921875 19.25 C 63.570312 19.738281 63.152344 20.085938 62.457031 20.085938 C 61.761719 20.085938 61.34375 19.808594 60.996094 19.179688 L 64.964844 17.5 Z M 60.785156 18.128906 C 60.785156 17.007812 61.691406 16.378906 62.320312 16.378906 C 62.804688 16.378906 63.292969 16.660156 63.433594 17.007812 Z M 57.515625 20.996094 L 58.835938 20.996094 L 58.835938 12.25 L 57.515625 12.25 Z M 55.425781 15.890625 C 55.078125 15.539062 54.519531 15.191406 53.824219 15.191406 C 52.363281 15.191406 50.96875 16.519531 50.96875 18.199219 C 50.96875 19.878906 52.292969 21.136719 53.824219 21.136719 C 54.519531 21.136719 55.078125 20.789062 55.355469 20.4375 L 55.425781 20.4375 L 55.425781 20.859375 C 55.425781 21.976562 54.796875 22.605469 53.824219 22.605469 C 53.058594 22.605469 52.5 22.046875 52.363281 21.558594 L 51.246094 22.046875 C 51.59375 22.816406 52.429688 23.796875 53.894531 23.796875 C 55.425781 23.796875 56.679688 22.886719 56.679688 20.71875 L 56.679688 15.398438 L 55.425781 15.398438 Z M 53.894531 20.019531 C 52.988281 20.019531 52.222656 19.25 52.222656 18.199219 C 52.222656 17.148438 52.988281 16.378906 53.894531 16.378906 C 54.796875 16.378906 55.496094 17.148438 55.496094 18.199219 C 55.496094 19.25 54.796875 20.019531 53.894531 20.019531 Z M 70.882812 12.25 L 67.75 12.25 L 67.75 20.996094 L 69.074219 20.996094 L 69.074219 17.707031 L 70.882812 17.707031 C 72.34375 17.707031 73.738281 16.660156 73.738281 14.980469 C 73.738281 13.300781 72.34375 12.25 70.882812 12.25 Z M 70.953125 16.449219 L 69.074219 16.449219 L 69.074219 13.441406 L 70.953125 13.441406 C 71.925781 13.441406 72.484375 14.28125 72.484375 14.910156 C 72.414062 15.679688 71.859375 16.449219 70.953125 16.449219 Z M 78.960938 15.191406 C 77.984375 15.191406 77.011719 15.609375 76.664062 16.519531 L 77.847656 17.007812 C 78.125 16.519531 78.542969 16.378906 79.03125 16.378906 C 79.726562 16.378906 80.351562 16.800781 80.421875 17.5 L 80.421875 17.570312 C 80.214844 17.429688 79.65625 17.21875 79.097656 17.21875 C 77.847656 17.21875 76.59375 17.917969 76.59375 19.179688 C 76.59375 20.367188 77.636719 21.136719 78.75 21.136719 C 79.65625 21.136719 80.074219 20.71875 80.421875 20.296875 L 80.492188 20.296875 L 80.492188 20.996094 L 81.746094 20.996094 L 81.746094 17.640625 C 81.605469 16.097656 80.421875 15.191406 78.960938 15.191406 Z M 78.820312 20.019531 C 78.402344 20.019531 77.777344 19.808594 77.777344 19.25 C 77.777344 18.546875 78.542969 18.339844 79.167969 18.339844 C 79.726562 18.339844 80.003906 18.476562 80.351562 18.617188 C 80.214844 19.457031 79.515625 20.019531 78.820312 20.019531 Z M 86.132812 15.398438 L 84.667969 19.179688 L 84.601562 19.179688 L 83.066406 15.398438 L 81.675781 15.398438 L 83.972656 20.71875 L 82.648438 23.65625 L 83.972656 23.65625 L 87.523438 15.398438 Z M 74.433594 20.996094 L 75.757812 20.996094 L 75.757812 12.25 L 74.433594 12.25 Z M 74.433594 20.996094 "/>
<path style=" stroke:none;fill-rule:nonzero;fill:url(#linear0);" d="M 7.242188 5.253906 C 7.03125 5.464844 6.964844 5.8125 6.964844 6.234375 L 6.964844 21.699219 C 6.964844 22.117188 7.101562 22.46875 7.3125 22.675781 L 7.378906 22.746094 L 16.015625 14.070312 L 16.015625 13.929688 Z M 7.242188 5.253906 "/>
<path style=" stroke:none;fill-rule:nonzero;fill:url(#linear1);" d="M 18.800781 17.007812 L 15.945312 14.140625 L 15.945312 13.929688 L 18.800781 11.0625 L 18.871094 11.132812 L 22.28125 13.089844 C 23.257812 13.648438 23.257812 14.558594 22.28125 15.121094 Z M 18.800781 17.007812 "/>
<path style=" stroke:none;fill-rule:nonzero;fill:url(#linear2);" d="M 18.871094 16.9375 L 15.945312 14 L 7.242188 22.746094 C 7.589844 23.097656 8.078125 23.097656 8.703125 22.816406 Z M 18.871094 16.9375 "/>
<path style=" stroke:none;fill-rule:nonzero;fill:url(#linear3);" d="M 18.871094 11.0625 L 8.703125 5.253906 C 8.078125 4.902344 7.589844 4.972656 7.242188 5.324219 L 15.945312 14 Z M 18.871094 11.0625 "/>
<use xlink:href="#surface5" mask="url(#mask0)"/>
<use xlink:href="#surface8" mask="url(#mask1)"/>
<use xlink:href="#surface11" mask="url(#mask2)"/>
</g>
</svg>
